<svg xmlns="http://www.w3.org/2000/svg" xmlns:xlink="http://www.w3.org/1999/xlink" version="1.1" x="0px" y="0px" width="45px" height="35px" viewBox="0 0 45 35" enable-background="new 0 0 45 35" xml:space="preserve"><style>.style0{fill:	#010101;}</style><g><path d="M9.639 3.256h19.869c0.291 0 0.527-0.236 0.527-0.527s-0.236-0.528-0.527-0.528H9.639 c-0.292 0-0.528 0.237-0.528 0.528S9.347 3.3 9.6 3.256z" class="style0"/><path d="M9.639 8.178h7.725c0.291 0 0.528-0.237 0.528-0.528s-0.237-0.527-0.528-0.527H9.639 c-0.292 0-0.528 0.236-0.528 0.527S9.347 8.2 9.6 8.178z" class="style0"/><path d="M9.639 18.037h14.463c0.291 0 0.527-0.236 0.527-0.527s-0.236-0.527-0.527-0.527H9.639 c-0.292 0-0.528 0.236-0.528 0.527S9.347 18 9.6 18.037z" class="style0"/><path d="M36.021 16.982h-8.2c-0.291 0-0.528 0.236-0.528 0.527s0.237 0.5 0.5 0.527h8.2 c0.291 0 0.528-0.236 0.528-0.527S36.312 17 36 16.982z" class="style0"/><path d="M9.639 13.1h26.209c0.291 0 0.528-0.236 0.528-0.527s-0.237-0.528-0.528-0.528H9.639 c-0.292 0-0.528 0.237-0.528 0.528S9.347 13.1 9.6 13.1z" class="style0"/><path d="M5.575 2.727l1.449-1.529c0.201-0.209 0.194-0.543-0.02-0.75C6.798 0.3 6.4 0.3 6.3 0.5 L4.118 2.73l2.167 2.266C6.384 5.1 6.5 5.2 6.7 5.159c0.136 0 0.265-0.052 0.365-0.147c0.102-0.098 0.16-0.23 0.162-0.372 C7.197 4.5 7.1 4.4 7 4.267L5.575 2.727z" class="style0"/><path d="M5.575 22.407l1.446-1.527c0.099-0.101 0.152-0.234 0.149-0.376c-0.002-0.141-0.062-0.276-0.167-0.377 c-0.207-0.189-0.56-0.175-0.742 0.023l-2.143 2.261l2.164 2.261c0.099 0.1 0.2 0.2 0.4 0.2 c0.142 0 0.274-0.056 0.364-0.147c0.102-0.097 0.162-0.232 0.164-0.373c0.002-0.142-0.051-0.274-0.146-0.371L5.575 22.407z" class="style0"/><path d="M23.117 29.979c-0.102 0.097-0.161 0.232-0.163 0.373c-0.003 0.1 0.1 0.3 0.1 0.372l1.474 1.5 l-1.448 1.528c-0.098 0.102-0.15 0.235-0.147 0.376c0.003 0.1 0.1 0.3 0.2 0.373c0.099 0.1 0.2 0.1 0.4 0.1 c0.146 0 0.283-0.059 0.383-0.165l2.143-2.26l-2.17-2.268C23.665 29.8 23.3 29.8 23.1 29.979z" class="style0"/><path d="M38.717 15.087c-0.193-0.205-0.547-0.216-0.75-0.019c-0.206 0.2-0.215 0.533-0.015 0.746l1.474 1.5 l-1.45 1.531c-0.198 0.208-0.191 0.5 0 0.75c0.098 0.1 0.2 0.1 0.4 0.142c0.145 0 0.284-0.061 0.383-0.165 l2.142-2.26L38.717 15.087z" class="style0"/><path d="M9.639 22.944h10.075c0.292 0 0.528-0.237 0.528-0.528s-0.237-0.528-0.528-0.528H9.639 c-0.292 0-0.528 0.237-0.528 0.528S9.347 22.9 9.6 22.944z" class="style0"/><path d="M35.848 21.886H23.419c-0.291 0-0.527 0.236-0.527 0.526c0 0.3 0.2 0.5 0.5 0.527h12.429 c0.291 0 0.528-0.236 0.528-0.527C36.376 22.1 36.1 21.9 35.8 21.886z" class="style0"/><path d="M28.788 26.812H9.639c-0.292 0-0.528 0.236-0.528 0.527c0 0.3 0.2 0.5 0.5 0.526h19.149 c0.291 0 0.527-0.236 0.527-0.526C29.315 27 29.1 26.8 28.8 26.812z" class="style0"/><path d="M21.396 31.732H9.639c-0.292 0-0.528 0.237-0.528 0.528s0.237 0.5 0.5 0.527h11.757 c0.291 0 0.527-0.236 0.527-0.527S21.687 31.7 21.4 31.732z" class="style0"/></g></svg>