<?xml version="1.0" encoding="utf-8"?>
<!-- Generator: Adobe Illustrator 16.0.0, SVG Export Plug-In . SVG Version: 6.00 Build 0)  -->
<!DOCTYPE svg PUBLIC "-//W3C//DTD SVG 1.1//EN" "http://www.w3.org/Graphics/SVG/1.1/DTD/svg11.dtd">
<svg version="1.1" id="Layer_1" xmlns="http://www.w3.org/2000/svg" xmlns:xlink="http://www.w3.org/1999/xlink" x="0px" y="0px"
	 width="35px" height="35px" viewBox="0 0 35 35" enable-background="new 0 0 35 35" xml:space="preserve">
<g>
	<path fill="#040303" stroke="#231F20" stroke-width="0.75" stroke-miterlimit="10" d="M27.661,30.469l1.726-0.895l0.466-0.24
		l-0.464-0.249l-7.306-3.895l-0.644-0.343l0.257,0.684l2.917,7.765l0.187,0.496l0.3-0.436l1.095-1.6l2.039,2.344l0.181,0.207
		l0.207-0.18l1.061-0.921l0.208-0.181l-0.181-0.209L27.661,30.469z M28.441,33.92l-2.273-2.613l-1.296,1.893l-2.918-7.766
		l7.307,3.896l-2.035,1.056L29.501,33L28.441,33.92z"/>
	<path fill="#040303" stroke="#231F20" stroke-width="0.75" stroke-miterlimit="10" d="M24.72,5.979
		c-0.984-3.122-3.904-5.391-7.347-5.391c-3.44,0-6.36,2.269-7.345,5.391h-5.38v28.078h18.979V33.78H4.924V6.255h5.031
		c-0.179,0.651-0.284,1.332-0.284,2.04h0.276c0-0.708,0.105-1.39,0.292-2.04h14.271c0.187,0.649,0.29,1.331,0.29,2.04h0.275
		c0-0.708-0.104-1.388-0.282-2.04h5.029v21.896h0.274V5.979H24.72z M10.322,5.979c0.975-2.966,3.766-5.115,7.051-5.115
		c3.288,0,6.079,2.149,7.055,5.115H10.322z"/>
</g>
</svg>
