<?xml version="1.0" encoding="utf-8"?>
<!-- Generator: Adobe Illustrator 16.0.0, SVG Export Plug-In . SVG Version: 6.00 Build 0)  -->
<!DOCTYPE svg PUBLIC "-//W3C//DTD SVG 1.1//EN" "http://www.w3.org/Graphics/SVG/1.1/DTD/svg11.dtd">
<svg version="1.1" id="Layer_1" xmlns="http://www.w3.org/2000/svg" xmlns:xlink="http://www.w3.org/1999/xlink" x="0px" y="0px"
	 width="35px" height="35px" viewBox="0 0 35 35" enable-background="new 0 0 35 35" xml:space="preserve">
<g>
	<path fill="#040303" stroke="#231F20" stroke-width="0.75" stroke-miterlimit="10" d="M12.984,26.234V0.981h-0.301v25.253
		c-1.374,0.078-2.471,1.209-2.471,2.602s1.097,2.522,2.471,2.601v2.868h0.301v-2.869c1.372-0.08,2.467-1.209,2.467-2.6
		S14.356,26.316,12.984,26.234z M12.831,31.152c-1.278,0-2.317-1.039-2.317-2.316s1.039-2.316,2.317-2.316
		c1.279,0,2.319,1.039,2.319,2.316S14.11,31.152,12.831,31.152z"/>
	<path fill="#040303" stroke="#231F20" stroke-width="0.75" stroke-miterlimit="10" d="M22.295,4.656V0.981h-0.301v3.674
		c0.05-0.002,0.097-0.015,0.146-0.015c-1.442,0-2.616,1.173-2.616,2.616s1.174,2.616,2.616,2.616c-0.05,0-0.097-0.012-0.146-0.015
		v24.446h0.301V9.857c1.371-0.082,2.466-1.21,2.466-2.601S23.666,4.738,22.295,4.656z M22.141,9.573
		c-1.277,0-2.315-1.039-2.315-2.316s1.038-2.316,2.315-2.316c1.279,0,2.319,1.039,2.319,2.316S23.42,9.573,22.141,9.573z"/>
	<path fill="#040303" stroke="#231F20" stroke-width="0.75" stroke-miterlimit="10" d="M34.072,22.863
		c0-1.442-1.176-2.616-2.621-2.616c-1.443,0-2.617,1.174-2.617,2.616c0,1.443,1.174,2.616,2.617,2.616
		C32.896,25.479,34.072,24.307,34.072,22.863z M31.451,25.18c-1.277,0-2.316-1.039-2.316-2.316s1.039-2.316,2.316-2.316
		c1.279,0,2.32,1.039,2.32,2.316S32.73,25.18,31.451,25.18z"/>
	<path fill="#040303" stroke="#231F20" stroke-width="0.75" stroke-miterlimit="10" d="M31.301,34.305h0.301v-8.84
		c-0.051,0.002-0.099,0.015-0.15,0.015s-0.1-0.013-0.15-0.015V34.305z"/>
	<path fill="#040303" stroke="#231F20" stroke-width="0.75" stroke-miterlimit="10" d="M31.602,0.981h-0.301v19.28
		c0.051-0.002,0.099-0.015,0.15-0.015s0.1,0.013,0.15,0.015V0.981z"/>
	<path fill="#040303" stroke="#231F20" stroke-width="0.75" stroke-miterlimit="10" d="M3.674,15.043V0.982H3.373v14.061
		c-1.372,0.08-2.467,1.209-2.467,2.6c0,1.392,1.095,2.522,2.467,2.603v14.061h0.301V20.246c1.373-0.08,2.47-1.211,2.47-2.603
		C6.144,16.253,5.047,15.123,3.674,15.043z M3.523,19.961c-1.277,0-2.316-1.039-2.316-2.317c0-1.277,1.039-2.315,2.316-2.315
		c1.279,0,2.319,1.039,2.319,2.315C5.843,18.922,4.803,19.961,3.523,19.961z"/>
</g>
</svg>
