<?xml version="1.0" encoding="utf-8"?>
<!-- Generator: Adobe Illustrator 16.0.0, SVG Export Plug-In . SVG Version: 6.00 Build 0)  -->
<!DOCTYPE svg PUBLIC "-//W3C//DTD SVG 1.1//EN" "http://www.w3.org/Graphics/SVG/1.1/DTD/svg11.dtd">
<svg version="1.1" id="Layer_1" xmlns="http://www.w3.org/2000/svg" xmlns:xlink="http://www.w3.org/1999/xlink" x="0px" y="0px"
	 width="35px" height="35px" viewBox="0 0 35 35" enable-background="new 0 0 35 35" xml:space="preserve">
<g>
	<g>
		<path fill="#040303" d="M21.643,26.932H5.1c-0.083,0-0.15,0.066-0.15,0.15c0,0.082,0.067,0.15,0.15,0.15h16.542
			c0.084,0,0.15-0.068,0.15-0.15C21.793,26.998,21.727,26.932,21.643,26.932z"/>
		<path fill="#231F20" d="M21.643,27.607H5.1c-0.29,0-0.525-0.235-0.525-0.525s0.235-0.525,0.525-0.525h16.542
			c0.29,0,0.525,0.235,0.525,0.525S21.933,27.607,21.643,27.607z"/>
	</g>
	<g>
		<path fill="#040303" d="M21.643,22.822H5.1c-0.083,0-0.15,0.066-0.15,0.15c0,0.082,0.067,0.15,0.15,0.15h16.542
			c0.084,0,0.15-0.068,0.15-0.15C21.793,22.889,21.727,22.822,21.643,22.822z"/>
		<path fill="#231F20" d="M21.643,23.498H5.1c-0.29,0-0.525-0.235-0.525-0.525s0.235-0.525,0.525-0.525h16.542
			c0.29,0,0.525,0.235,0.525,0.525S21.933,23.498,21.643,23.498z"/>
	</g>
	<g>
		<path fill="#040303" d="M4.95,18.869c0,0.084,0.067,0.15,0.15,0.15h16.542c0.084,0,0.15-0.066,0.15-0.15
			c0-0.082-0.066-0.15-0.15-0.15H5.1C5.017,18.719,4.95,18.787,4.95,18.869z"/>
		<path fill="#231F20" d="M21.643,19.395H5.1c-0.29,0-0.525-0.235-0.525-0.525s0.235-0.525,0.525-0.525h16.542
			c0.29,0,0.525,0.235,0.525,0.525S21.933,19.395,21.643,19.395z"/>
	</g>
	<g>
		<path fill="#040303" d="M5.1,14.912h12.633c0.083,0,0.15-0.067,0.15-0.15s-0.067-0.15-0.15-0.15H5.1
			c-0.083,0-0.15,0.067-0.15,0.15S5.017,14.912,5.1,14.912z"/>
		<path fill="#231F20" d="M17.733,15.287H5.1c-0.29,0-0.525-0.236-0.525-0.525s0.235-0.525,0.525-0.525h12.633
			c0.29,0,0.525,0.236,0.525,0.525S18.022,15.287,17.733,15.287z"/>
	</g>
	<g>
		<path fill="#040303" d="M29.902,9.678h-4.562V6.893l-5.743-5.988l-0.045-0.046H1.352v32.928h23.989v-2.893h8.306V13.577
			L29.902,9.678z M25.041,33.486H1.652V1.159h17.686v6.195h5.703V33.486z M25.041,7.055h-5.404V1.38l5.404,5.634V7.055z
			 M29.839,10.044l3.485,3.63h-3.485V10.044z M33.347,30.594h-8.006V9.978h4.198v3.997h3.808V30.594z"/>
		<path fill="#231F20" d="M34.021,14.049v17.22h-8.306v2.893H0.977V0.484H19.71l0.11,0.113l5.896,6.145v2.561h4.347l3.959,4.123
			v0.433 M2.027,33.111h22.639V7.729h-5.703V1.534H2.027V33.111z M25.716,30.219h7.256V14.35h-3.808v-3.997h-3.448V30.219z
			 M30.214,13.299h2.23l-2.23-2.323V13.299z M20.012,6.68H24.2l-4.188-4.367V6.68z"/>
	</g>
</g>
</svg>
