<?xml version="1.0" encoding="utf-8"?>
<!-- Generator: Adobe Illustrator 16.0.0, SVG Export Plug-In . SVG Version: 6.00 Build 0)  -->
<!DOCTYPE svg PUBLIC "-//W3C//DTD SVG 1.1//EN" "http://www.w3.org/Graphics/SVG/1.1/DTD/svg11.dtd">
<svg version="1.1" id="Layer_1" xmlns="http://www.w3.org/2000/svg" xmlns:xlink="http://www.w3.org/1999/xlink" x="0px" y="0px"
	 width="60px" height="35px" viewBox="0 0 60 35" enable-background="new 0 0 60 35" xml:space="preserve">
<g>
	<circle fill="#231F20" cx="9.644" cy="31.99" r="0.732"/>
	<path fill="#231F20" d="M46.669,13.28V0.653H9.228v18.941H5.988V33.9h7.31v-5.928h10.619v5.096h-2.061V33.9h12.186v-0.832h-2.062
		v-5.096h6.517V33.9h15.515V13.28H46.669z M24.749,33.068v-5.064h6.398v5.064H24.749z M12.466,30.99v2.078H6.82V30.99H12.466z
		 M6.82,30.157v-9.73h5.646v9.73H6.82z M38.496,23.243v3.896H13.298v-3.896H38.496z M10.06,19.594V1.484h35.777V13.28h-7.341v9.131
		H13.298v-2.817H10.06z M53.179,29.933v3.136H39.328v-3.136H53.179z M39.328,29.101V14.112h13.851v14.988H39.328z"/>
	<circle fill="#231F20" cx="46.252" cy="31.499" r="0.731"/>
</g>
</svg>
